<?xml version="1.0" encoding="utf-8"?><svg viewBox="0 0 34 30" xmlns="http://www.w3.org/2000/svg" xmlns:xlink="http://www.w3.org/1999/xlink"><style>:root>svg{display:none}:root>svg:target{display:block}</style><svg fill="none" viewBox="0 0 8 12" id="button-next--black" xmlns="http://www.w3.org/2000/svg"><path d="M5.828 7.788L7.567 6.05 5.876 4.358 2.476.96.739 2.7l3.399 3.398L.659 9.575l1.691 1.691 3.478-3.478z" fill="#242E40"/></svg><svg fill="none" viewBox="0 0 8 12" id="button-prev--black" xmlns="http://www.w3.org/2000/svg"><path d="M2.172 7.788L.433 6.05l1.691-1.692L5.524.96 7.261 2.7 3.863 6.096l3.478 3.478-1.691 1.691-3.478-3.478z" fill="#242E40"/></svg><svg fill="none" viewBox="0 0 13 15" id="play-2" xmlns="http://www.w3.org/2000/svg"><path d="M13 7.5L.25 14.861V.14L13 7.5z" fill="#fff"/></svg><svg fill="none" viewBox="0 0 34 14" id="swiper-button-next" xmlns="http://www.w3.org/2000/svg"><path d="M.292 7h31.59M25.559 12.863L31.882 7l-6.323-5.876" stroke="#5A6F8B" stroke-width="2"/></svg><svg fill="none" viewBox="0 0 34 14" id="swiper-button-prev" xmlns="http://www.w3.org/2000/svg"><path d="M33.708 7H2.118M8.441 12.863L2.118 7l6.323-5.876" stroke="#5A6F8B" stroke-width="2"/></svg><svg fill="none" viewBox="0 0 28 30" id="zoom" xmlns="http://www.w3.org/2000/svg"><path d="M6.757 14.757h4v4h4v-4h4v-4h-4v-4h-4v4h-4v4z" fill="#fff"/><path fill-rule="evenodd" clip-rule="evenodd" d="M12.757 24.757c2.072 0 4.022-.525 5.722-1.45l5.935 5.936 2.829-2.829-5.596-5.596a11.956 11.956 0 003.11-8.06c0-6.628-5.372-12-12-12-6.627 0-12 5.372-12 12 0 6.627 5.373 12 12 12zm0-4a8 8 0 100-16 8 8 0 000 16z" fill="#fff"/></svg></svg>